:FULLY-SPECIFIED
:FORCE-ALL-JOINTS-BE-3DOF
:DEGREES
485
root 10.8373 17.2534 32.9583 6.41998 4.32383 3.53719
lfemur 12.311 2.44236 -30.7562
ltibia 11.86 0 0
lfoot -14.7302 5.24366 0
ltoes -12.9275 0 0
rfemur -43.6086 1.57374 21.233
rtibia 54.4868 0 0
rfoot -25.3878 -13.5502 0
rtoes -27.4397 0 0
lowerback -7.81882 -4.71667 -4.44633
upperback 0.095127 -6.03508 2.22858
thorax 5.08978 -3.11439 4.16832
lowerneck -28.5463 -3.5913 -12.0656
upperneck 27.9906 -4.19233 12.6607
head 14.4142 -1.30658 6.13508
lclavicle 1.63438e-14 1.10742e-14 0
lhumerus -25.5584 -23.1109 108.338
lradius 33.2342 0 0
lwrist 2.75282 0 0
lhand -12.8274 -29.1386 0
lfingers 8.46918 0 0
lthumb 18.0924 5.82391 0
rclavicle 1.63438e-14 1.10742e-14 0
rhumerus -56.3634 5.2027 -98.0187
rradius 35.8127 0 0
rwrist -14.8317 0 0
rhand -35.0982 -29.6998 0
rfingers 8.46918 0 0
rthumb -3.40114 -65.3101 0
486
root 10.8293 17.2419 33.14 6.44223 4.35369 3.54258
lfemur 13.1279 2.39157 -30.5983
ltibia 11.2767 0 0
lfoot -14.5819 5.2512 0
ltoes -13.3798 0 0
rfemur -43.863 1.66668 21.2201
rtibia 53.8644 0 0
rfoot -25.5151 -13.6276 0
rtoes -27.5627 0 0
lowerback -7.79933 -4.7559 -4.45201
upperback 0.0725657 -6.08765 2.24011
thorax 5.06258 -3.14014 4.17811
lowerneck -28.5191 -3.56871 -12.026
upperneck 27.9223 -4.16481 12.638
head 14.3839 -1.29282 6.12437
lclavicle 1.65921e-14 1.12866e-14 0
lhumerus -25.6754 -23.1203 108.248
lradius 33.3236 0 0
lwrist 2.84332 0 0
lhand -12.7318 -29.1112 0
lfingers 8.45172 0 0
lthumb 18.1217 5.77431 0
rclavicle 1.65921e-14 1.12866e-14 0
rhumerus -56.3967 5.00563 -97.6642
rradius 35.5163 0 0
rwrist -14.6896 0 0
rhand -34.9842 -29.5145 0
rfingers 8.45172 0 0
rthumb -3.35391 -65.052 0
487
root 10.8205 17.23 33.3188 6.46074 4.38074 3.54604
lfemur 13.9223 2.34052 -30.4276
ltibia 10.6989 0 0
lfoot -14.4289 5.2559 0
ltoes -13.8166 0 0
rfemur -44.0899 1.75697 21.1964
rtibia 53.2261 0 0
rfoot -25.6268 -13.6965 0
rtoes -27.6691 0 0
lowerback -7.77618 -4.79193 -4.45527
upperback 0.0504004 -6.13607 2.25025
thorax 5.03329 -3.16378 4.18555
lowerneck -28.4778 -3.54471 -11.9809
upperneck 27.8408 -4.13566 12.6093
head 14.3467 -1.27866 6.1107
lclavicle 1.68271e-14 1.14892e-14 0
lhumerus -25.7768 -23.1175 108.105
lradius 33.3941 0 0
lwrist 2.93062 0 0
lhand -12.6315 -29.0694 0
lfingers 8.43023 0 0
lthumb 18.141 5.72269 0
rclavicle 1.68271e-14 1.14892e-14 0
rhumerus -56.4003 4.80976 -97.266
rradius 35.2073 0 0
rwrist -14.5426 0 0
rhand -34.8543 -29.3176 0
rfingers 8.43023 0 0
rthumb -3.30585 -64.7653 0
488
root 10.811 17.2176 33.4944 6.47558 4.40502 3.54762
lfemur 14.6939 2.28929 -30.2447
ltibia 10.127 0 0
lfoot -14.2715 5.25782 0
ltoes -14.2377 0 0
rfemur -44.2898 1.84458 21.1624
rtibia 52.5733 0 0
rfoot -25.7233 -13.7571 0
rtoes -27.7593 0 0
lowerback -7.74954 -4.8248 -4.45621
upperback 0.0286477 -6.18041 2.25905
thorax 5.00202 -3.18534 4.19072
lowerneck -28.4228 -3.51939 -11.9306
upperneck 27.7467 -4.10498 12.5748
head 14.3029 -1.26412 6.09419
lclavicle 1.70489e-14 1.16818e-14 0
lhumerus -25.8631 -23.1031 107.909
lradius 33.4462 0 0
lwrist 3.01469 0 0
lhand -12.5268 -29.0135 0
lfingers 8.40488 0 0
lthumb 18.1508 5.66917 0
rclavicle 1.70489e-14 1.16818e-14 0
rhumerus -56.3751 4.61531 -96.8262
rradius 34.8865 0 0
rwrist -14.3912 0 0
rhand -34.7093 -29.1096 0
rfingers 8.40488 0 0
rthumb -3.25706 -64.4513 0
489
root 10.8007 17.2047 33.6664 6.48687 4.42659 3.54739
lfemur 15.4424 2.23795 -30.0504
ltibia 9.56176 0 0
lfoot -14.1102 5.25706 0
ltoes -14.643 0 0
rfemur -44.4634 1.92948 21.1185
rtibia 51.9075 0 0
rfoot -25.8048 -13.8096 0
rtoes -27.8337 0 0
lowerback -7.71954 -4.85458 -4.45488
upperback 0.00732445 -6.22074 2.26653
thorax 4.96887 -3.20486 4.19367
lowerneck -28.3546 -3.49281 -11.8753
upperneck 27.6407 -4.07287 12.5346
head 14.2528 -1.24925 6.07496
lclavicle 1.72575e-14 1.18647e-14 0
lhumerus -25.9347 -23.0773 107.663
lradius 33.4804 0 0
lwrist 3.09554 0 0
lhand -12.4179 -28.9442 0
lfingers 8.37582 0 0
lthumb 18.1512 5.6139 0
rclavicle 1.72575e-14 1.18647e-14 0
rhumerus -56.3221 4.42251 -96.3467
rradius 34.5547 0 0
rwrist -14.2356 0 0
rhand -34.5498 -28.8912 0
rfingers 8.37582 0 0
rthumb -3.20763 -64.1113 0
490
root 10.7897 17.1913 33.8347 6.4947 4.44551 3.54541
lfemur 16.1674 2.18659 -29.8453
ltibia 9.00365 0 0
lfoot -13.9453 5.25371 0
ltoes -15.0326 0 0
rfemur -44.6112 2.01163 21.065
rtibia 51.2299 0 0
rfoot -25.8719 -13.854 0
rtoes -27.8928 0 0
lowerback -7.68635 -4.88133 -4.45137
upperback -0.0135527 -6.25712 2.27273
thorax 4.93396 -3.22238 4.19448
lowerneck -28.2738 -3.46505 -11.8153
upperneck 27.5231 -4.03941 12.489
head 14.1967 -1.23407 6.05311
lclavicle 1.74532e-14 1.20378e-14 0
lhumerus -25.9918 -23.0406 107.368
lradius 33.4973 0 0
lwrist 3.17314 0 0
lhand -12.3051 -28.862 0
lfingers 8.34322 0 0
lthumb 18.1427 5.557 0
rclavicle 1.74532e-14 1.20378e-14 0
rhumerus -56.2422 4.23158 -95.8295
rradius 34.2128 0 0
rwrist -14.0762 0 0
rhand -34.3765 -28.6631 0
rfingers 8.34322 0 0
rthumb -3.15765 -63.7467 0
491
root 10.778 17.1774 33.9987 6.49917 4.46183 3.54172
lfemur 16.8687 2.13527 -29.63
ltibia 8.45332 0 0
lfoot -13.7772 5.24785 0
ltoes -15.4062 0 0
rfemur -44.734 2.091 21.0024
rtibia 50.542 0 0
rfoot -25.9247 -13.8907 0
rtoes -27.9368 0 0
lowerback -7.6501 -4.90509 -4.44575
upperback -0.0339671 -6.28965 2.27768
thorax 4.89738 -3.23793 4.19321
lowerneck -28.1808 -3.4362 -11.7508
upperneck 27.3946 -4.0047 12.4383
head 14.1349 -1.21862 6.02877
lclavicle 1.76361e-14 1.22012e-14 0
lhumerus -26.035 -22.9934 107.028
lradius 33.4974 0 0
lwrist 3.2475 0 0
lhand -12.1887 -28.7674 0
lfingers 8.30723 0 0
lthumb 18.1254 5.49862 0
rclavicle 1.76361e-14 1.22012e-14 0
rhumerus -56.1365 4.04275 -95.2765
rradius 33.8615 0 0
rwrist -13.9133 0 0
rhand -34.19 -28.426 0
rfingers 8.30723 0 0
rthumb -3.10721 -63.3587 0
492
root 10.7654 17.163 34.1583 6.50038 4.47561 3.5364
lfemur 17.5458 2.08408 -29.4052
ltibia 7.91136 0 0
lfoot -13.6062 5.23957 0
ltoes -15.7639 0 0
rfemur -44.8321 2.16755 20.9309
rtibia 49.8451 0 0
rfoot -25.9638 -13.9198 0
rtoes -27.9663 0 0
lowerback -7.61096 -4.92592 -4.4381
upperback -0.053902 -6.31837 2.28141
thorax 4.85925 -3.25155 4.18993
lowerneck -28.0763 -3.40634 -11.6821
upperneck 27.2557 -3.96883 12.3827
head 14.0676 -1.20292 6.00205
lclavicle 1.78062e-14 1.2355e-14 0
lhumerus -26.0645 -22.9361 106.643
lradius 33.4812 0 0
lwrist 3.31858 0 0
lhand -12.0691 -28.661 0
lfingers 8.26802 0 0
lthumb 18.0997 5.43889 0
rclavicle 1.78062e-14 1.2355e-14 0
rhumerus -56.0059 3.85623 -94.6898
rradius 33.5017 0 0
rwrist -13.7475 0 0
rhand -33.9912 -28.1803 0
rfingers 8.26802 0 0
rthumb -3.0564 -62.9487 0
493
root 10.752 17.1481 34.313 6.49843 4.48691 3.5295
lfemur 18.1985 2.0331 -29.1715
ltibia 7.37837 0 0
lfoot -13.4326 5.22897 0
ltoes -16.1055 0 0
rfemur -44.9064 2.24125 20.851
rtibia 49.1406 0 0
rfoot -25.9894 -13.9415 0
rtoes -27.9816 0 0
lowerback -7.56907 -4.94389 -4.42849
upperback -0.0733407 -6.34338 2.28395
thorax 4.81968 -3.26329 4.18471
lowerneck -27.9607 -3.37554 -11.6094
upperneck 27.1069 -3.93189 12.3225
head 13.9951 -1.18702 5.97307
lclavicle 1.79637e-14 1.24992e-14 0
lhumerus -26.0808 -22.8691 106.215
lradius 33.4492 0 0
lwrist 3.38639 0 0
lhand -11.9465 -28.5433 0
lfingers 8.22575 0 0
lthumb 18.0658 5.37795 0
rclavicle 1.79637e-14 1.24992e-14 0
rhumerus -55.8513 3.67225 -94.0712
rradius 33.1343 0 0
rwrist -13.5788 0 0
rhand -33.7807 -27.9269 0
rfingers 8.22575 0 0
rthumb -3.00532 -62.518 0
